<svg width="400" height="101" viewBox="0 0 400 101" fill="none" xmlns="http://www.w3.org/2000/svg">
<path d="M66.6562 60.0625C66.6562 58.2917 66.0312 56.9375 64.7812 56C63.5312 55.0417 61.2812 54.0417 58.0312 53C54.7812 51.9375 52.2083 50.8958 50.3125 49.875C45.1458 47.0833 42.5625 43.3229 42.5625 38.5938C42.5625 36.1354 43.25 33.9479 44.625 32.0312C46.0208 30.0938 48.0104 28.5833 50.5938 27.5C53.1979 26.4167 56.1146 25.875 59.3438 25.875C62.5938 25.875 65.4896 26.4688 68.0312 27.6562C70.5729 28.8229 72.5417 30.4792 73.9375 32.625C75.3542 34.7708 76.0625 37.2083 76.0625 39.9375H66.6875C66.6875 37.8542 66.0312 36.2396 64.7188 35.0938C63.4062 33.9271 61.5625 33.3438 59.1875 33.3438C56.8958 33.3438 55.1146 33.8333 53.8438 34.8125C52.5729 35.7708 51.9375 37.0417 51.9375 38.625C51.9375 40.1042 52.6771 41.3438 54.1562 42.3438C55.6562 43.3438 57.8542 44.2812 60.75 45.1562C66.0833 46.7604 69.9688 48.75 72.4062 51.125C74.8438 53.5 76.0625 56.4583 76.0625 60C76.0625 63.9375 74.5729 67.0312 71.5938 69.2812C68.6146 71.5104 64.6042 72.625 59.5625 72.625C56.0625 72.625 52.875 71.9896 50 70.7188C47.125 69.4271 44.9271 67.6667 43.4062 65.4375C41.9062 63.2083 41.1562 60.625 41.1562 57.6875H50.5625C50.5625 62.7083 53.5625 65.2188 59.5625 65.2188C61.7917 65.2188 63.5312 64.7708 64.7812 63.875C66.0312 62.9583 66.6562 61.6875 66.6562 60.0625ZM80.4375 54.7812C80.4375 51.4271 81.0833 48.4375 82.375 45.8125C83.6667 43.1875 85.5208 41.1562 87.9375 39.7188C90.375 38.2812 93.1979 37.5625 96.4062 37.5625C100.969 37.5625 104.688 38.9583 107.562 41.75C110.458 44.5417 112.073 48.3333 112.406 53.125L112.469 55.4375C112.469 60.625 111.021 64.7917 108.125 67.9375C105.229 71.0625 101.344 72.625 96.4688 72.625C91.5938 72.625 87.6979 71.0625 84.7812 67.9375C81.8854 64.8125 80.4375 60.5625 80.4375 55.1875V54.7812ZM89.4688 55.4375C89.4688 58.6458 90.0729 61.1042 91.2812 62.8125C92.4896 64.5 94.2188 65.3438 96.4688 65.3438C98.6562 65.3438 100.365 64.5104 101.594 62.8438C102.823 61.1562 103.438 58.4688 103.438 54.7812C103.438 51.6354 102.823 49.1979 101.594 47.4688C100.365 45.7396 98.6354 44.875 96.4062 44.875C94.1979 44.875 92.4896 45.7396 91.2812 47.4688C90.0729 49.1771 89.4688 51.8333 89.4688 55.4375ZM120.5 72V44.8125H115.469V38.1875H120.5V35.3125C120.5 31.5208 121.583 28.5833 123.75 26.5C125.938 24.3958 128.99 23.3438 132.906 23.3438C134.156 23.3438 135.688 23.5521 137.5 23.9688L137.406 30.9688C136.656 30.7812 135.74 30.6875 134.656 30.6875C131.26 30.6875 129.562 32.2812 129.562 35.4688V38.1875H136.281V44.8125H129.562V72H120.5ZM151.781 29.875V38.1875H157.562V44.8125H151.781V61.6875C151.781 62.9375 152.021 63.8333 152.5 64.375C152.979 64.9167 153.896 65.1875 155.25 65.1875C156.25 65.1875 157.135 65.1146 157.906 64.9688V71.8125C156.135 72.3542 154.312 72.625 152.438 72.625C146.104 72.625 142.875 69.4271 142.75 63.0312V44.8125H137.812V38.1875H142.75V29.875H151.781ZM163.188 72V26.5H177.188C181.188 26.5 184.76 27.4062 187.906 29.2188C191.073 31.0104 193.542 33.5729 195.312 36.9062C197.083 40.2188 197.969 43.9896 197.969 48.2188V50.3125C197.969 54.5417 197.094 58.3021 195.344 61.5938C193.615 64.8854 191.167 67.4375 188 69.25C184.833 71.0625 181.26 71.9792 177.281 72H163.188ZM172.562 34.0938V64.4688H177.094C180.76 64.4688 183.562 63.2708 185.5 60.875C187.438 58.4792 188.427 55.0521 188.469 50.5938V48.1875C188.469 43.5625 187.51 40.0625 185.594 37.6875C183.677 35.2917 180.875 34.0938 177.188 34.0938H172.562ZM219.781 72.625C214.823 72.625 210.781 71.1042 207.656 68.0625C204.552 65.0208 203 60.9688 203 55.9062V55.0312C203 51.6354 203.656 48.6042 204.969 45.9375C206.281 43.25 208.135 41.1875 210.531 39.75C212.948 38.2917 215.698 37.5625 218.781 37.5625C223.406 37.5625 227.042 39.0208 229.688 41.9375C232.354 44.8542 233.688 48.9896 233.688 54.3438V58.0312H212.156C212.448 60.2396 213.323 62.0104 214.781 63.3438C216.26 64.6771 218.125 65.3438 220.375 65.3438C223.854 65.3438 226.573 64.0833 228.531 61.5625L232.969 66.5312C231.615 68.4479 229.781 69.9479 227.469 71.0312C225.156 72.0938 222.594 72.625 219.781 72.625ZM218.75 44.875C216.958 44.875 215.5 45.4792 214.375 46.6875C213.271 47.8958 212.562 49.625 212.25 51.875H224.812V51.1562C224.771 49.1562 224.229 47.6146 223.188 46.5312C222.146 45.4271 220.667 44.875 218.75 44.875ZM257.156 62.6562C257.156 61.5521 256.604 60.6875 255.5 60.0625C254.417 59.4167 252.667 58.8438 250.25 58.3438C242.208 56.6562 238.188 53.2396 238.188 48.0938C238.188 45.0938 239.427 42.5938 241.906 40.5938C244.406 38.5729 247.667 37.5625 251.688 37.5625C255.979 37.5625 259.406 38.5729 261.969 40.5938C264.552 42.6146 265.844 45.2396 265.844 48.4688H256.812C256.812 47.1771 256.396 46.1146 255.562 45.2812C254.729 44.4271 253.427 44 251.656 44C250.135 44 248.958 44.3438 248.125 45.0312C247.292 45.7188 246.875 46.5938 246.875 47.6562C246.875 48.6562 247.344 49.4688 248.281 50.0938C249.24 50.6979 250.844 51.2292 253.094 51.6875C255.344 52.125 257.24 52.625 258.781 53.1875C263.552 54.9375 265.938 57.9688 265.938 62.2812C265.938 65.3646 264.615 67.8646 261.969 69.7812C259.323 71.6771 255.906 72.625 251.719 72.625C248.885 72.625 246.365 72.125 244.156 71.125C241.969 70.1042 240.25 68.7188 239 66.9688C237.75 65.1979 237.125 63.2917 237.125 61.25H245.688C245.771 62.8542 246.365 64.0833 247.469 64.9375C248.573 65.7917 250.052 66.2188 251.906 66.2188C253.635 66.2188 254.938 65.8958 255.812 65.25C256.708 64.5833 257.156 63.7188 257.156 62.6562ZM281.312 72H272.25V38.1875H281.312V72ZM271.719 29.4375C271.719 28.0833 272.167 26.9688 273.062 26.0938C273.979 25.2188 275.219 24.7812 276.781 24.7812C278.323 24.7812 279.552 25.2188 280.469 26.0938C281.385 26.9688 281.844 28.0833 281.844 29.4375C281.844 30.8125 281.375 31.9375 280.438 32.8125C279.521 33.6875 278.302 34.125 276.781 34.125C275.26 34.125 274.031 33.6875 273.094 32.8125C272.177 31.9375 271.719 30.8125 271.719 29.4375ZM287.469 54.8438C287.469 49.6562 288.698 45.4792 291.156 42.3125C293.635 39.1458 296.969 37.5625 301.156 37.5625C304.865 37.5625 307.75 38.8333 309.812 41.375L310.188 38.1875H318.375V70.875C318.375 73.8333 317.698 76.4062 316.344 78.5938C315.01 80.7812 313.125 82.4479 310.688 83.5938C308.25 84.7396 305.396 85.3125 302.125 85.3125C299.646 85.3125 297.229 84.8125 294.875 83.8125C292.521 82.8333 290.74 81.5625 289.531 80L293.531 74.5C295.781 77.0208 298.51 78.2812 301.719 78.2812C304.115 78.2812 305.979 77.6354 307.312 76.3438C308.646 75.0729 309.312 73.2604 309.312 70.9062V69.0938C307.229 71.4479 304.49 72.625 301.094 72.625C297.031 72.625 293.74 71.0417 291.219 67.875C288.719 64.6875 287.469 60.4688 287.469 55.2188V54.8438ZM296.5 55.5C296.5 58.5625 297.115 60.9688 298.344 62.7188C299.573 64.4479 301.26 65.3125 303.406 65.3125C306.156 65.3125 308.125 64.2812 309.312 62.2188V48C308.104 45.9375 306.156 44.9062 303.469 44.9062C301.302 44.9062 299.594 45.7917 298.344 47.5625C297.115 49.3333 296.5 51.9792 296.5 55.5ZM333.656 38.1875L333.938 42.0938C336.354 39.0729 339.594 37.5625 343.656 37.5625C347.24 37.5625 349.906 38.6146 351.656 40.7188C353.406 42.8229 354.302 45.9688 354.344 50.1562V72H345.312V50.375C345.312 48.4583 344.896 47.0729 344.062 46.2188C343.229 45.3438 341.844 44.9062 339.906 44.9062C337.365 44.9062 335.458 45.9896 334.188 48.1562V72H325.156V38.1875H333.656Z" fill="white"/>
<line x1="2.35241e-09" y1="1.5" x2="400" y2="1.5" stroke="#FF9000" stroke-width="3"/>
<line x1="2.35241e-09" y1="99.5" x2="400" y2="99.5" stroke="#FF9000" stroke-width="3"/>
<circle cx="5" cy="52" r="5" fill="#FF9900"/>
<circle cx="395" cy="52" r="5" fill="#FF9900"/>
</svg>
